<?xml version="1.0" standalone="no"?>
<!DOCTYPE svg PUBLIC "-//W3C//DTD SVG 20010904//EN"
 "http://www.w3.org/TR/2001/REC-SVG-20010904/DTD/svg10.dtd">
<svg version="1.0" xmlns="http://www.w3.org/2000/svg"
 width="600.000000pt" height="600.000000pt" viewBox="0 0 600.000000 600.000000"
 preserveAspectRatio="xMidYMid meet">

<g transform="translate(0.000000,600.000000) scale(0.100000,-0.100000)"
fill="#a62a22" stroke="none">
<path d="M2825 5509 c-140 -26 -248 -73 -574 -252 -798 -437 -1541 -851 -1541
-858 0 -12 647 -374 1583 -884 473 -259 496 -268 692 -268 168 0 224 16 430
126 389 207 1602 871 1789 979 66 39 68 41 50 58 -21 20 -203 122 -954 535
-860 472 -938 513 -1024 535 -149 38 -335 50 -451 29z m515 -214 c601 -91
1049 -386 1145 -756 25 -94 17 -251 -18 -342 -132 -344 -554 -603 -1127 -694
-162 -25 -538 -25 -700 0 -573 91 -994 350 -1127 694 -34 89 -43 248 -19 340
103 405 623 714 1306 777 93 8 439 -4 540 -19z"/>
<path d="M2730 5160 c-598 -83 -1013 -394 -1012 -760 0 -242 170 -457 476
-605 669 -322 1656 -167 1975 311 212 317 60 679 -374 893 -124 61 -250 103
-408 137 -107 23 -150 26 -357 29 -129 2 -264 0 -300 -5z m380 -341 c88 -14
193 -52 235 -84 65 -49 69 -67 75 -300 5 -173 9 -216 23 -242 9 -18 17 -37 17
-43 0 -6 -49 -10 -142 -10 -118 0 -145 3 -160 17 -10 9 -18 23 -18 31 0 10 -5
12 -17 7 -176 -74 -325 -81 -506 -25 -195 60 -219 234 -44 320 85 41 180 58
390 66 194 8 189 6 162 70 -20 50 -67 67 -180 68 -98 1 -153 -18 -162 -55 -5
-18 -16 -19 -149 -19 -79 0 -144 2 -144 5 0 2 7 23 16 45 26 65 138 127 269
149 73 12 260 12 335 0z"/>
<path d="M2837 4436 c-87 -24 -123 -67 -97 -116 36 -67 257 -66 353 2 24 17
27 26 27 74 l0 54 -117 -1 c-65 0 -140 -6 -166 -13z"/>
<path d="M534 4117 c-2 -7 -3 -118 -2 -246 l3 -235 495 -274 c1139 -630 1610
-886 1692 -918 87 -34 160 -46 272 -45 125 0 223 24 337 82 106 53 907 490
1589 867 l525 291 3 228 c1 125 0 233 -3 240 -8 22 -69 -10 -1115 -587 -768
-423 -846 -465 -910 -490 -186 -74 -420 -99 -613 -65 -210 37 -217 40 -1535
766 -398 220 -725 399 -728 399 -3 0 -7 -6 -10 -13z"/>
<path d="M532 3045 l3 -246 535 -296 c837 -461 1534 -841 1613 -879 136 -64
315 -81 481 -44 105 23 94 17 1404 737 l882 486 0 244 c0 134 -3 242 -7 240
-30 -18 -1549 -852 -1751 -961 -350 -189 -442 -218 -707 -219 -206 0 -339 33
-525 131 -194 102 -780 422 -1315 717 -291 161 -549 302 -573 314 l-42 22 2
-246z"/>
<path d="M531 2189 l4 -264 34 -70 c23 -47 56 -91 100 -135 60 -59 110 -89
531 -322 633 -349 1281 -703 1360 -743 257 -129 603 -124 876 13 147 74 606
324 1249 680 516 286 576 322 633 378 42 42 73 85 94 131 l32 68 4 263 c3 144
2 262 -2 262 -3 0 -50 -24 -103 -54 -54 -29 -359 -198 -678 -374 -1287 -710
-1255 -694 -1443 -731 -202 -41 -351 -34 -560 24 -117 33 -160 56 -1198 628
-496 273 -909 500 -919 503 -16 7 -17 -9 -14 -257z"/>
</g>
</svg>
