<?xml version="1.0" encoding="utf-8"?>
<svg viewBox="0 0 500 500" xmlns="http://www.w3.org/2000/svg">
  <g transform="matrix(0.109983, 0, 0, -0.097026, -32.024483, 498.208038)" fill="blue" stroke="none" style="">
    <path d="M2422 5109 c-84 -15 -201 -57 -272 -98 -70 -40 -1610 -1004 -1647 -1030 -12 -9 -23 -19 -23 -23 0 -9 1755 -1107 1815 -1134 81 -37 164 -55 260 -55 98 0 153 9 240 42 46 17 1808 1109 1839 1140 6 5 3 15 -10 24 -53 42 -1676 1052 -1722 1072 -135 60 -344 87 -480 62z"/>
    <path d="M325 3658 c-3 -18 -5 -134 -3 -257 l3 -225 940 -589 c517 -324 977 -607 1022 -629 120 -59 239 -77 367 -56 57 9 121 28 163 47 37 18 498 301 1023 629 l955 598 3 236 c1 129 -1 245 -5 256 -7 19 -85 -28 -878 -524 -478 -300 -892 -557 -920 -571 -142 -73 -273 -104 -440 -104 -140 0 -265 27 -386 84 -41 19 -465 279 -944 579 -478 299 -875 547 -882 551 -8 5 -14 -3 -18 -25z"/>
    <path d="M320 2568 l1 -253 972 -607 c535 -334 993 -616 1019 -627 61 -26 183 -51 248 -51 65 0 187 25 248 51 26 11 485 293 1019 627 l973 607 0 253 c0 138 -2 252 -4 252 -3 0 -398 -246 -878 -546 -480 -300 -909 -564 -952 -586 -126 -63 -245 -90 -401 -91 -153 -1 -259 21 -393 83 -45 22 -478 287 -962 589 -484 303 -882 551 -885 551 -3 0 -5 -114 -5 -252z"/>
    <path d="M322 1689 c4 -265 5 -276 29 -340 30 -77 84 -156 137 -197 58 -45 1639 -1032 1712 -1069 199 -99 461 -107 675 -19 53 21 358 206 885 535 443 277 827 520 854 539 63 46 128 135 157 214 21 58 23 83 27 337 l4 274 -34 -20 c-18 -11 -418 -260 -888 -555 -470 -294 -875 -545 -900 -558 -112 -57 -292 -100 -420 -100 -139 0 -336 51 -449 116 -25 15 -424 264 -886 552 -462 289 -855 534 -873 545 l-34 20 4 -274z"/>
  </g>
  <text style="white-space: pre; fill: rgb(51, 51, 51); font-family: Arial, sans-serif; font-size: 16.1px;" x="205.539" y="69.192"> </text>
  <circle class="st0" cx="15.9" cy="15.9" r="14.7" fill="#00a8c6" style="fill: none; stroke: rgb(255, 255, 255); stroke-width: 2.5px;" transform="matrix(9.490208, 0, 0, 5.768365, 98.668388, 22.143185)"/>
  <path class="st1" d="M 276.137 144.434 C 275.186 143.856 275.186 142.703 274.237 141.548 C 274.237 140.395 273.288 139.241 273.288 138.087 C 271.389 139.241 269.493 139.819 267.593 140.973 C 265.696 142.126 262.85 142.703 260.952 143.278 C 258.106 143.856 256.207 144.434 252.409 145.011 C 249.563 145.586 245.767 145.586 242.92 145.586 C 237.227 145.586 232.48 145.011 227.734 143.856 C 222.991 142.703 219.195 141.548 215.397 139.819 C 211.601 138.087 209.703 135.78 207.806 133.473 C 205.91 131.167 204.959 128.281 204.959 125.396 C 204.959 118.477 209.703 112.706 218.246 109.247 C 226.788 105.21 240.072 103.479 257.155 103.479 L 273.288 103.479 L 273.288 99.439 C 273.288 95.978 271.389 93.671 268.543 91.941 C 264.746 90.211 260.002 89.056 253.36 89.056 C 247.666 89.056 243.868 89.634 241.022 91.364 C 238.174 93.095 237.227 94.826 237.227 97.133 L 208.756 97.133 C 208.756 94.249 209.703 91.364 211.601 89.056 C 213.499 86.748 216.348 84.441 221.093 82.135 C 224.889 80.404 229.634 78.673 235.329 77.52 C 241.022 76.365 247.666 75.789 255.256 75.789 C 261.9 75.789 267.593 76.365 273.288 77.52 C 278.984 78.673 283.729 79.828 288.473 82.135 C 292.268 83.864 296.064 86.748 297.964 89.634 C 299.861 92.518 301.758 95.978 301.758 100.016 L 301.758 128.859 C 301.758 132.32 301.758 135.203 302.708 137.51 C 303.658 139.819 304.606 142.126 305.554 143.278 L 305.554 144.434 L 276.137 144.434 Z M 248.615 132.32 C 251.463 132.32 254.308 132.32 256.207 131.743 C 259.053 131.167 260.952 130.589 262.85 130.012 C 264.746 129.435 266.645 128.859 267.593 127.704 C 268.543 127.128 270.442 125.974 271.389 125.396 L 271.389 113.86 L 257.155 113.86 C 252.409 113.86 248.615 113.86 245.767 114.437 C 242.92 115.014 240.072 115.592 238.174 116.745 C 236.275 117.898 234.378 118.477 233.431 120.205 C 232.48 121.36 232.48 123.09 232.48 124.243 C 232.48 126.551 233.431 128.281 236.275 130.012 C 239.124 131.743 243.868 132.32 248.615 132.32 Z" fill="#00a8c6" style="fill: rgb(255, 255, 255);"/>
</svg>