<?xml version="1.0" standalone="no"?>
<!DOCTYPE svg PUBLIC "-//W3C//DTD SVG 20010904//EN"
 "http://www.w3.org/TR/2001/REC-SVG-20010904/DTD/svg10.dtd">
<svg version="1.0" xmlns="http://www.w3.org/2000/svg"
 width="32.000000pt" height="32.000000pt" viewBox="0 0 32.000000 32.000000"
 preserveAspectRatio="xMidYMid meet">


<g transform="translate(0.000000,32.000000) scale(0.100000,-0.100000)"
fill="#000000" stroke="none">
<path d="M113 290 c-18 -10 -39 -33 -48 -49 -31 -60 -11 -163 28 -148 13 5 15
16 10 56 -7 64 12 96 67 111 29 8 40 16 40 30 0 27 -53 27 -97 0z" fill="#a62a22"/>
<path d="M156 235 c-9 -24 1 -35 30 -35 33 0 84 -51 84 -84 0 -13 -4 -36 -9
-50 -13 -33 12 -57 36 -34 41 41 20 148 -37 190 -37 27 -95 35 -104 13z" fill="#a62a22"/>
<path d="M119 197 c-9 -20 -9 -33 0 -56 10 -22 10 -34 1 -50 -9 -18 -8 -21 9
-21 11 0 35 13 53 29 18 16 42 30 53 32 19 4 19 5 -3 27 -12 12 -33 22 -46 22
-14 0 -32 9 -40 22 l-15 21 -12 -26z" fill="#a62a22" />
<path d="M3 95 c-13 -36 62 -85 131 -85 36 0 52 6 81 31 38 34 47 69 17 69
-10 0 -29 -11 -42 -25 -17 -18 -34 -25 -61 -25 -25 0 -47 8 -67 25 -34 29 -50
31 -59 10z" fill="#a62a22"/>
</g>
</svg>
